<?xml version="1.0" standalone="no"?>
<!DOCTYPE svg PUBLIC "-//W3C//DTD SVG 20010904//EN"
 "http://www.w3.org/TR/2001/REC-SVG-20010904/DTD/svg10.dtd">
<svg version="1.0" xmlns="http://www.w3.org/2000/svg"
 width="540.000000pt" height="960.000000pt" viewBox="0 0 540.000000 960.000000"
 preserveAspectRatio="xMidYMid meet">

<g transform="translate(0.000000,960.000000) scale(0.100000,-0.100000)"
fill="#000000" stroke="none">
<path d="M0 6583 l0 -3018 104 0 c133 0 545 -21 552 -28 13 -12 23 -92 34
-257 7 -96 14 -177 16 -179 2 -2 8 7 13 21 16 44 33 50 131 46 86 -3 91 -2 88
17 -3 18 -10 20 -86 19 -69 -1 -88 -5 -112 -23 -35 -25 -38 -16 -15 50 31 87
39 136 40 269 1 105 6 144 20 175 23 52 106 154 149 183 31 21 34 27 29 57 -5
32 -2 36 40 62 25 15 52 33 61 38 13 9 13 14 -5 50 -12 24 -23 67 -25 105 -3
45 -1 59 5 45 8 -17 10 -16 10 11 1 17 6 45 12 62 10 29 14 32 51 30 43 -1 55
8 65 55 7 35 27 35 43 -2 16 -39 77 -62 145 -55 38 4 46 3 35 -5 -13 -10 -13
-13 3 -25 26 -20 20 -30 -8 -12 -13 9 -44 16 -67 16 -38 0 -45 -3 -54 -28 -9
-22 -7 -31 8 -47 16 -17 20 -17 28 -5 8 13 10 12 10 -3 0 -28 58 -11 114 33
18 15 19 12 13 -69 -5 -69 -12 -92 -33 -123 -15 -21 -30 -38 -35 -38 -5 0 -29
-20 -55 -45 -38 -38 -52 -45 -85 -45 -21 0 -39 -3 -39 -7 1 -16 52 -57 73 -58
12 -1 21 -6 20 -11 -3 -9 -7 -10 -39 -13 -14 -1 -14 -4 -4 -16 7 -9 21 -13 31
-10 25 8 25 6 -16 -69 -19 -36 -35 -70 -35 -75 0 -6 -17 -48 -39 -93 -21 -46
-44 -101 -52 -123 -14 -40 -14 -39 -19 70 -5 109 10 235 30 260 6 7 6 15 -1
22 -8 8 -7 17 1 34 l13 23 19 -27 c11 -15 27 -27 36 -27 16 1 16 2 0 14 -9 7
-29 37 -43 67 -14 30 -30 60 -34 68 -15 28 -26 21 -26 -16 0 -21 -4 -56 -8
-78 -8 -37 -7 -39 7 -20 15 20 15 19 15 -5 0 -14 -4 -45 -10 -70 -6 -25 -10
-54 -10 -65 0 -11 -6 -45 -14 -76 -19 -72 -19 -89 0 -89 12 0 15 -13 15 -55 0
-41 -4 -55 -14 -55 -11 0 -16 15 -19 53 -2 31 -4 12 -5 -46 -2 -83 -6 -105
-28 -148 -14 -28 -34 -80 -45 -115 -11 -36 -24 -62 -29 -59 -6 4 -10 13 -10
21 0 15 -12 16 -50 4 -17 -5 -19 -8 -7 -9 16 -1 21 -12 18 -39 -4 -23 40 -52
78 -52 36 0 37 1 48 54 6 30 23 73 38 96 14 23 32 74 40 113 15 77 33 135 46
153 5 6 5 14 1 18 -4 4 0 6 8 4 11 -2 37 42 90 146 53 105 82 151 98 157 25 9
30 29 7 29 -27 0 -16 21 45 81 32 33 69 73 80 89 13 18 26 27 35 23 8 -3 15
-1 15 3 -1 17 -26 41 -57 55 -62 27 -31 41 32 15 19 -8 35 -11 35 -6 0 5 -10
12 -22 16 -57 18 -85 86 -34 82 18 -2 21 -7 18 -29 -3 -22 1 -27 25 -32 20 -4
38 -20 61 -55 18 -27 48 -62 67 -78 20 -15 34 -33 31 -40 -2 -6 19 -22 47 -35
29 -12 75 -46 103 -73 53 -54 74 -104 77 -184 1 -22 6 -37 11 -34 5 3 6 -6 2
-21 -8 -35 8 -43 23 -10 l12 26 15 -29 c9 -16 11 -30 6 -32 -6 -2 -8 -12 -5
-22 4 -15 0 -20 -15 -20 -32 0 -36 -19 -7 -30 23 -9 25 -12 11 -25 -8 -8 -21
-15 -29 -15 -23 0 -28 -12 -9 -26 31 -24 -24 -17 -69 9 -33 18 -41 20 -48 8
-8 -12 -16 -11 -54 7 -25 12 -75 27 -111 33 -45 9 -62 15 -54 22 36 25 -62 -7
-106 -36 -67 -43 -105 -84 -141 -154 -27 -53 -30 -67 -30 -159 0 -69 5 -110
15 -128 12 -24 12 -28 0 -36 -18 -12 -60 -8 -62 6 0 5 9 14 21 19 24 11 25 46
1 53 -8 3 -12 1 -8 -3 4 -4 0 -22 -9 -39 -10 -17 -16 -34 -15 -38 1 -5 -2 -8
-8 -8 -18 0 -11 -25 11 -38 17 -11 24 -11 43 2 22 14 23 13 18 -10 -5 -30 -19
-39 -35 -25 -7 5 -24 7 -38 4 -20 -6 -22 -4 -12 8 10 12 9 18 -7 29 -10 7 -17
17 -14 22 3 4 -2 8 -10 8 -9 0 -14 -8 -13 -20 1 -11 6 -20 11 -20 6 0 4 -6 -2
-12 -10 -10 -15 -10 -22 2 -6 8 -8 20 -5 27 5 14 -51 32 -100 34 l-30 1 30 13
c17 7 47 12 68 10 20 -2 37 0 37 4 0 4 13 6 28 3 28 -4 62 17 62 38 0 23 -139
10 -171 -16 -31 -24 -274 -129 -264 -114 3 5 21 14 40 20 47 15 44 30 -5 32
-83 3 -100 5 -106 11 -9 8 6 48 16 42 4 -3 6 3 3 14 -3 13 -19 22 -54 28 -29
6 -49 6 -49 1 0 -5 -5 -6 -12 -2 -7 4 -8 3 -4 -5 4 -6 10 -9 14 -7 4 2 8 -22
9 -55 2 -57 1 -59 -25 -65 -46 -10 -48 -12 -11 -13 36 -1 56 -21 43 -42 -5 -9
-136 -5 -224 6 -19 2 -78 7 -130 11 -52 4 -97 8 -99 10 -6 5 -29 157 -36 234
-3 41 -10 106 -15 144 -5 42 -5 77 1 87 5 10 9 29 9 43 0 35 10 56 27 56 9 0
13 8 11 23 -3 19 -9 22 -45 21 -28 0 -43 4 -43 12 0 13 -80 22 -137 16 l-33
-4 0 -547 0 -547 183 -37 c130 -26 214 -49 296 -82 63 -25 114 -45 115 -45 1
0 0 34 -2 75 -3 70 -1 80 26 123 52 83 52 86 -23 116 -36 14 -71 26 -79 26
-12 0 -26 20 -26 36 0 11 28 2 33 -10 3 -7 20 -16 38 -20 51 -10 119 -48 119
-66 0 -10 -14 -43 -31 -75 -29 -54 -31 -64 -27 -146 2 -72 7 -93 26 -119 25
-33 76 -159 68 -167 -9 -10 -24 7 -29 34 -3 16 -13 37 -21 48 -14 19 -15 18
-6 -15 6 -19 10 -44 10 -54 0 -37 -17 -2 -40 79 -12 44 -25 86 -28 93 -20 39
-215 109 -424 152 l-178 37 0 -199 c0 -109 2 -198 5 -198 12 0 72 34 119 67
30 22 52 31 58 25 12 -12 -50 -61 -125 -98 -49 -24 -57 -32 -57 -56 0 -33 -1
-33 109 -12 112 21 232 15 295 -16 26 -12 63 -40 84 -62 20 -22 60 -64 89 -93
95 -98 174 -261 190 -393 3 -26 -5 -120 -17 -212 -12 -91 -26 -192 -31 -225
-10 -79 -2 147 11 301 9 97 8 120 -9 185 -45 174 -158 331 -287 397 -47 24
-191 41 -309 37 -44 -2 -90 -4 -102 -4 l-23 -1 0 -925 0 -925 2700 0 2700 0 0
1134 c0 819 -3 1137 -11 1142 -8 4 -7 9 2 15 10 6 6 9 -13 9 -20 0 -28 -6 -30
-23 -4 -21 -5 -21 -18 7 -14 28 -15 28 -77 22 -40 -4 -71 -2 -84 5 -12 6 -37
12 -58 14 -20 2 -47 7 -61 13 -14 5 -31 7 -37 5 -7 -3 -13 -1 -13 5 0 5 -12
12 -27 15 -52 9 -258 70 -268 78 -5 5 15 9 47 9 30 0 70 3 88 7 30 6 33 4 28
-15 -5 -17 0 -23 26 -31 71 -23 312 -81 359 -87 50 -6 51 -6 32 11 l-20 17 20
-7 c11 -4 41 -8 68 -10 l47 -3 0 3634 0 3634 -2700 0 -2700 0 0 -3017z m2439
2322 c74 -10 164 -59 232 -126 98 -97 150 -212 174 -389 19 -132 25 -160 33
-158 15 5 93 -54 102 -76 5 -13 13 -27 19 -30 12 -8 46 8 75 35 29 27 124 74
176 87 25 6 84 21 132 32 121 30 232 25 306 -13 63 -32 82 -34 82 -8 0 11 5
23 11 26 5 4 14 17 19 30 17 45 156 95 261 95 21 0 41 -5 44 -10 4 -6 11 -8
16 -4 6 3 19 -2 31 -12 19 -18 21 -18 32 -2 7 10 16 15 19 11 4 -3 7 -2 7 4 0
6 21 25 48 41 52 33 159 60 257 63 79 3 100 -11 102 -64 1 -47 -38 -211 -67
-282 -5 -11 -21 -53 -36 -94 -36 -98 -30 -161 32 -346 64 -192 75 -237 79
-331 4 -90 12 -132 29 -153 18 -23 10 -355 -11 -411 -38 -105 -131 -145 -423
-180 -36 -4 -96 -13 -135 -19 -38 -6 -105 -15 -147 -21 -43 -5 -113 -15 -155
-20 -43 -6 -105 -13 -138 -16 -33 -3 -76 -10 -95 -14 -19 -5 -69 -12 -110 -15
-41 -3 -124 -12 -185 -20 -60 -9 -153 -20 -205 -26 -52 -5 -133 -14 -180 -19
-47 -5 -132 -14 -190 -20 -58 -6 -130 -15 -160 -20 -30 -6 -105 -9 -165 -9
-67 1 -119 -3 -132 -10 -12 -6 -31 -11 -42 -11 -12 0 -21 -4 -21 -10 0 -6 -46
-10 -119 -10 -76 0 -133 -5 -158 -14 -56 -20 -201 -30 -236 -17 -23 9 -42 7
-99 -10 -55 -17 -83 -20 -132 -15 -91 10 -120 7 -161 -20 -35 -23 -203 -24
-238 -1 -34 22 -53 22 -69 -2 -16 -23 -90 -61 -118 -61 -12 0 -29 -4 -39 -9
-25 -14 -237 -21 -316 -11 -55 7 -73 14 -93 36 -14 15 -27 39 -28 53 -2 14 -6
45 -9 69 -6 42 3 137 12 128 3 -3 6 -46 7 -96 1 -88 10 -114 22 -66 3 13 4 32
3 42 -4 27 12 88 25 96 6 5 2 8 -11 8 -46 0 -9 39 39 41 31 2 31 2 5 6 -16 3
-42 0 -59 -6 -17 -6 -34 -9 -36 -6 -13 12 44 53 102 74 35 12 74 34 87 48 24
24 24 28 22 196 -3 182 -21 557 -29 594 -5 25 -46 71 -87 98 -25 16 -117 137
-117 153 0 4 -6 18 -13 32 -50 95 -52 304 -5 435 84 236 259 375 472 375 119
0 266 -110 322 -240 6 -14 19 -42 28 -63 21 -50 37 -161 35 -256 -1 -110 14
-139 69 -132 6 1 12 -3 12 -8 0 -6 19 -2 43 8 88 40 165 59 202 51 20 -4 35
-4 35 1 0 5 7 9 15 9 8 0 15 5 15 10 0 6 7 10 15 10 8 0 23 8 34 19 10 10 24
20 30 22 14 5 44 174 37 204 -7 29 18 185 43 260 85 266 311 457 571 485 36 4
72 6 80 4 8 -1 39 -6 69 -9z m1609 -4176 c-2 -6 12 -16 29 -23 45 -15 86 -61
78 -86 -5 -14 -2 -20 9 -20 9 0 16 -4 16 -9 0 -5 -33 -15 -72 -21 -40 -7 -83
-19 -95 -26 -30 -19 -53 -18 -83 3 -16 11 -44 17 -81 18 l-55 0 14 57 c21 85
36 96 124 95 41 0 83 5 94 11 24 14 25 14 22 1z m72 -9 c0 -5 -9 -10 -19 -10
-11 0 -23 5 -26 10 -4 6 5 10 19 10 14 0 26 -4 26 -10z m-1514 -235 c15 -14
35 -25 45 -25 11 0 19 -4 19 -10 0 -5 -6 -10 -14 -10 -7 0 -34 -11 -60 -25
-44 -23 -49 -24 -76 -10 -16 8 -36 15 -45 15 -8 0 -15 5 -15 10 0 6 9 10 21
10 14 0 19 5 17 18 -5 25 22 52 54 52 15 0 39 -11 54 -25z m1438 -30 c51 -39
89 -44 118 -18 11 10 35 18 54 18 28 1 34 -2 34 -19 0 -34 -49 -94 -87 -107
-18 -6 -42 -20 -52 -30 -16 -17 -22 -18 -47 -7 -41 17 -41 17 -14 38 16 12 21
22 15 27 -14 12 -165 4 -165 -9 0 -20 30 -38 64 -38 20 0 36 -4 36 -10 0 -14
-77 -13 -82 2 -3 8 -12 6 -29 -5 -24 -16 -27 -16 -45 1 -11 10 -24 17 -30 15
-14 -5 -34 93 -27 130 4 19 10 26 20 23 8 -3 18 -6 23 -6 4 0 10 -9 13 -20 7
-29 28 -25 78 14 24 19 52 35 61 35 9 1 37 -15 62 -34z m325 -61 c17 11 13
-26 -5 -52 -8 -12 -22 -22 -31 -22 -12 0 -13 3 -4 13 7 10 7 17 0 24 -8 8 -7
17 1 33 9 17 14 19 20 10 4 -7 13 -9 19 -6z m-2049 -44 c0 -5 -2 -10 -4 -10
-3 0 -8 5 -11 10 -3 6 -1 10 4 10 6 0 11 -4 11 -10z m250 -10 c0 -5 -7 -10
-15 -10 -8 0 -15 5 -15 10 0 6 7 10 15 10 8 0 15 -4 15 -10z m-202 -22 l11
-23 0 22 c1 21 2 21 36 7 44 -18 60 -18 80 2 23 23 29 11 16 -29 -13 -39 -25
-46 -79 -48 -34 -2 -34 -2 -7 -6 16 -3 34 -11 40 -19 15 -21 150 -27 166 -8
12 15 64 19 73 6 9 -15 -23 -44 -46 -41 -13 1 -34 -1 -48 -4 -14 -4 -51 -9
-82 -11 -66 -5 -78 -10 -78 -35 0 -26 -9 -31 -35 -19 -14 6 -21 16 -18 24 3 8
0 14 -6 14 -6 0 -16 12 -21 26 -6 14 -14 23 -19 20 -22 -14 -41 26 -40 82 l2
57 6 -43 c4 -23 13 -48 20 -55 10 -9 10 -6 2 15 -11 28 -5 88 9 88 4 0 12 -10
18 -22z m362 4 c0 -31 -34 -62 -68 -62 -25 0 -35 6 -47 30 -18 34 -19 33 53
30 32 -1 52 2 52 9 0 6 2 11 5 11 3 0 5 -8 5 -18z m47 1 c-2 -5 -12 -25 -22
-45 -10 -22 -24 -38 -34 -38 -10 0 -12 3 -5 8 7 4 19 24 27 45 9 20 21 37 27
37 6 0 9 -3 7 -7z m-191 -42 l21 -39 -39 0 c-21 -1 -48 -4 -61 -8 l-22 -6 21
23 c12 13 27 34 33 47 16 30 23 28 47 -17z m270 -5 c-9 -48 -36 -57 -36 -11 0
26 3 33 15 29 10 -4 15 0 15 12 0 9 3 15 6 11 4 -3 3 -22 0 -41z m1144 -36
c-8 -5 -24 -10 -35 -10 -11 0 -27 5 -35 10 -11 7 -1 10 35 10 36 0 46 -3 35
-10z m-2470 -57 c0 -7 -5 -13 -11 -13 -5 0 -8 4 -4 9 3 5 1 12 -5 16 -6 4 -7
11 -4 17 7 11 24 -9 24 -29z m1059 -66 c-10 -7 -35 -11 -59 -9 -55 6 -32 22
30 22 38 -1 43 -3 29 -13z m369 -32 c123 -90 161 -121 167 -134 4 -10 -1 -10
-19 3 -14 9 -34 16 -46 16 -11 0 -20 5 -20 10 0 6 -7 10 -15 10 -8 0 -19 9
-25 21 -7 11 -17 18 -24 16 -7 -3 -19 -1 -27 4 -12 8 -12 10 1 19 13 9 9 15
-20 40 -48 41 -29 38 28 -5z m-558 6 c0 -5 -9 -11 -20 -14 -11 -3 -20 -1 -20
3 0 5 8 11 18 13 9 3 18 5 20 6 1 0 2 -3 2 -8z m-48 -33 c14 -22 13 -23 -21
-37 -20 -8 -53 -14 -73 -15 -37 0 -38 -1 -39 -41 -1 -22 -1 -45 0 -51 1 -6
-10 -19 -23 -27 -24 -16 -24 -16 -31 29 -5 37 -9 43 -20 34 -8 -6 -11 -18 -9
-25 7 -16 -33 -58 -46 -50 -9 5 -15 -24 -11 -49 1 -4 -3 -14 -10 -22 -6 -7 -8
-18 -4 -24 4 -6 -3 -18 -14 -28 -21 -17 -31 -68 -17 -90 5 -8 0 -12 -13 -12
-17 0 -21 6 -21 33 0 18 4 37 10 43 5 5 18 34 29 64 41 116 49 132 89 171 23
22 46 38 51 34 5 -3 11 -1 13 5 3 9 121 76 139 79 4 1 13 -9 21 -21z m215 -11
c-5 -17 -56 -21 -83 -6 -34 18 -23 24 36 21 33 -3 50 -8 47 -15z m-172 -87
c-4 -17 -9 -29 -12 -26 -3 2 -2 19 2 36 4 17 9 29 12 26 3 -2 2 -19 -2 -36z
m-75 7 c0 -22 -30 -57 -48 -56 -15 1 -15 2 -1 6 9 2 19 17 23 34 5 28 26 41
26 16z m720 -7 c0 -5 9 -10 20 -10 11 0 34 -9 51 -19 l32 -19 -42 -13 c-23 -7
-46 -18 -52 -26 -14 -17 -42 -17 -36 0 2 6 10 12 17 12 7 0 15 6 18 13 2 6 -3
12 -12 12 -9 0 -16 4 -16 10 0 5 12 8 28 6 15 -2 19 -1 10 1 -10 2 -18 9 -18
14 0 5 -9 9 -20 9 -11 0 -20 5 -20 10 0 6 9 10 20 10 11 0 20 -4 20 -10z
m-710 -109 c14 -28 12 -57 -5 -71 -12 -10 -13 -16 -4 -26 6 -8 14 -29 18 -46
6 -29 12 -33 55 -43 92 -19 87 -70 -7 -68 -28 0 -43 -2 -32 -4 35 -9 68 -23
64 -28 -3 -2 -40 -11 -84 -20 -86 -18 -107 -29 -98 -51 3 -9 -2 -14 -16 -14
-15 0 -21 -6 -21 -24 0 -12 -5 -37 -11 -55 -10 -28 -14 -31 -50 -29 -21 2 -39
-1 -41 -7 -2 -5 -23 -25 -48 -44 -25 -19 -48 -38 -51 -43 -6 -9 -39 33 -39 49
0 5 14 17 31 27 17 10 64 51 105 90 41 40 74 69 74 65 0 -4 7 -9 15 -13 13 -5
14 -2 4 15 -9 18 -7 25 14 48 14 14 28 41 32 60 4 18 17 56 29 85 22 51 27
115 12 149 -12 25 40 24 54 -2z m-203 -7 c-3 -3 -12 -4 -19 -1 -8 3 -5 6 6 6
11 1 17 -2 13 -5z m-787 -38 c0 -16 -41 -96 -50 -96 -11 0 -13 11 -4 34 3 9
10 14 14 11 4 -3 8 1 7 8 -1 33 4 47 18 47 8 0 15 -2 15 -4z m-60 -126 c-8 -5
-12 -12 -8 -15 8 -9 -40 -105 -53 -105 -12 0 -12 1 9 49 10 22 22 38 25 34 4
-3 7 6 7 20 0 19 5 27 18 27 14 0 15 -2 2 -10z m744 -56 c3 -8 6 -18 7 -22 0
-4 5 -12 10 -19 14 -16 -31 -4 -48 13 -14 13 -17 37 -7 47 9 9 32 -3 38 -19z
m442 -60 c-3 -9 -6 -18 -6 -20 0 -2 -4 -4 -9 -4 -7 0 -8 17 -2 38 1 1 6 2 12
2 6 0 8 -7 5 -16z m-1256 -34 c-6 -4 -11 -10 -10 -14 2 -11 -18 -41 -24 -35
-10 10 25 70 36 63 7 -4 6 -9 -2 -14z m1211 -20 c27 0 49 -4 49 -10 0 -5 -23
-10 -50 -10 -28 0 -64 -7 -79 -14 -29 -16 -74 -11 -68 7 4 12 68 36 85 31 8
-2 36 -4 63 -4z m-2211 -30 c0 -5 -2 -10 -4 -10 -3 0 -8 5 -11 10 -3 6 -1 10
4 10 6 0 11 -4 11 -10z m2250 -39 c0 -14 -28 -21 -86 -21 -30 0 -54 -4 -54
-10 0 -5 -7 -7 -15 -4 -24 9 -17 24 10 24 14 0 25 3 25 8 0 4 27 8 60 9 33 1
60 -1 60 -6z m-750 -43 c14 -6 33 -15 44 -20 10 -5 40 -7 67 -3 33 5 54 3 64
-5 18 -15 20 -90 3 -90 -7 0 -1 -11 15 -25 36 -34 60 -82 54 -111 -2 -13 1
-25 7 -27 7 -2 12 -42 14 -100 l4 -97 39 0 c21 0 39 -3 39 -6 0 -3 -14 -26
-32 -50 -25 -35 -34 -41 -45 -32 -11 9 -10 14 7 30 23 22 28 47 5 28 -12 -10
-15 -9 -15 6 0 40 -13 45 -66 28 -27 -9 -55 -21 -62 -27 -6 -5 -26 -7 -42 -3
-23 4 -30 2 -30 -10 0 -20 -27 -29 -45 -14 -8 7 -15 22 -15 33 0 11 -12 31
-26 44 -14 13 -23 30 -20 38 7 19 -11 30 -28 16 -7 -6 -31 -10 -54 -8 -36 2
-42 5 -42 25 0 30 -30 29 -65 -4 -15 -14 -33 -23 -39 -21 -14 6 -36 93 -36
144 0 51 21 165 34 182 6 7 50 32 98 56 89 43 112 46 168 23z m305 2 c3 -5 1
-10 -4 -10 -6 0 -11 5 -11 10 0 6 2 10 4 10 3 0 8 -4 11 -10z m505 -119 c649
-88 763 -105 767 -118 3 -9 -4 -10 -29 -2 -18 5 -96 18 -173 29 -77 10 -275
38 -440 60 -165 23 -317 42 -338 42 -21 0 -40 5 -43 9 -8 14 24 11 256 -20z
m1401 -261 c4 -8 11 -32 14 -52 4 -27 11 -38 23 -38 37 0 46 -18 53 -97 5 -61
13 -89 37 -129 41 -69 44 -82 48 -198 8 -209 3 -273 -18 -260 -8 5 -9 1 -5
-10 6 -14 3 -16 -13 -11 -11 3 -30 -1 -45 -11 -21 -13 -40 -16 -96 -11 -91 8
-141 32 -154 75 -6 22 -14 31 -25 27 -8 -2 -31 -7 -50 -10 -19 -3 -78 -14
-130 -24 -148 -30 -183 -25 -277 41 -58 41 -79 61 -81 80 -2 20 2 26 22 30 22
4 24 3 15 -13 -6 -13 -6 -19 1 -19 5 0 10 5 10 10 0 6 7 10 15 10 8 0 15 3 15
8 0 4 17 8 38 8 20 0 57 6 82 14 38 10 42 14 25 21 -19 7 -19 8 3 8 12 1 22 4
22 9 0 4 -16 66 -34 137 -29 114 -31 130 -17 133 9 1 79 -9 156 -22 77 -13
143 -22 148 -19 4 2 7 16 7 31 0 28 29 94 53 125 8 9 21 15 30 11 25 -9 28 12
3 24 -36 16 -50 113 -18 131 26 16 133 9 143 -9z m-2751 -106 c0 -8 -4 -14 -9
-14 -11 0 -22 26 -14 34 9 9 23 -3 23 -20z m150 17 c0 -5 -9 -7 -20 -4 -11 3
-20 7 -20 9 0 2 9 4 20 4 11 0 20 -4 20 -9z m350 5 c0 -3 -4 -8 -10 -11 -5 -3
-10 -1 -10 4 0 6 5 11 10 11 6 0 10 -2 10 -4z m-550 -20 c0 -2 -7 -7 -16 -10
-8 -3 -12 -2 -9 4 6 10 25 14 25 6z m260 -31 c0 -8 -7 -15 -16 -15 -14 0 -14
3 -4 15 7 8 14 15 16 15 2 0 4 -7 4 -15z m730 6 c0 -4 -12 -21 -26 -36 -14
-15 -23 -34 -20 -41 7 -17 -4 -17 -26 0 -16 12 -15 15 15 49 29 34 57 48 57
28z m84 -8 c7 -17 -31 -56 -46 -47 -3 2 -9 0 -13 -6 -3 -5 -16 -10 -27 -10
-20 0 -20 1 -5 18 10 10 17 23 17 28 0 10 36 31 56 33 7 0 15 -7 18 -16z m51
-3 c-28 -12 -37 -12 -30 0 3 6 16 10 28 9 21 0 21 -1 2 -9z m-357 -17 c-10 -2
-26 -2 -35 0 -10 3 -2 5 17 5 19 0 27 -2 18 -5z m-1358 -17 c0 -3 -4 -8 -10
-11 -5 -3 -10 -1 -10 4 0 6 5 11 10 11 6 0 10 -2 10 -4z m445 -96 c-3 -5 -18
-10 -33 -9 l-27 1 25 8 c35 11 42 11 35 0z m1426 -16 c12 -30 10 -41 -7 -48
-24 -9 -54 12 -54 39 0 37 47 44 61 9z m-2034 -30 c-3 -3 -12 -4 -19 -1 -8 3
-5 6 6 6 11 1 17 -2 13 -5z m1237 -15 c-30 -12 -37 -10 -24 5 6 8 19 12 27 9
14 -6 14 -8 -3 -14z m152 -5 c43 -7 56 -13 50 -23 -10 -15 5 -41 23 -42 14 -1
14 -2 0 -6 -9 -2 -21 -14 -28 -26 -10 -19 -20 -22 -67 -22 -38 0 -58 5 -64 15
-8 13 -11 12 -24 -5 -14 -19 -15 -19 -14 12 1 36 10 40 83 39 47 -1 86 16 71
31 -9 10 -46 11 -46 2 0 -4 -10 -5 -22 -2 -13 3 -38 6 -55 7 -37 1 -46 16 -10
16 12 0 31 7 41 15 13 10 22 11 26 5 4 -6 20 -13 36 -16z m3375 19 c24 15 146
-5 168 -29 15 -15 14 -16 -14 -9 -16 4 -37 8 -45 9 -9 1 -20 5 -26 8 -5 4 -16
3 -24 -3 -8 -5 -22 -9 -30 -9 -11 1 -10 5 5 16 19 16 19 16 -5 8 -40 -12 -63
-10 -68 6 -3 12 -2 12 8 3 9 -9 17 -9 31 0z m-3458 -10 c-7 -2 -21 -2 -30 0
-10 3 -4 5 12 5 17 0 24 -2 18 -5z m3397 -4 c0 -6 -9 -9 -20 -6 -11 3 -18 1
-14 -4 3 -5 -1 -9 -10 -9 -8 0 -17 6 -19 13 -4 9 -8 9 -14 1 -15 -20 -48 -25
-69 -9 -18 15 -18 15 9 9 17 -4 27 -2 27 5 0 7 21 11 55 11 34 0 55 -4 55 -11z
m-3182 -26 c-10 -2 -28 -2 -40 0 -13 2 -5 4 17 4 22 1 32 -1 23 -4z m2565 -44
c32 -15 35 -44 5 -60 -29 -16 -165 -16 -211 0 -50 17 -49 50 3 69 42 15 162
10 203 -9z m577 6 c0 -8 -4 -15 -10 -15 -5 0 -10 7 -10 15 0 8 5 15 10 15 6 0
10 -7 10 -15z m-3117 -12 c-7 -2 -21 -2 -30 0 -10 3 -4 5 12 5 17 0 24 -2 18
-5z m-1566 -9 c-3 -3 -12 -4 -19 -1 -8 3 -5 6 6 6 11 1 17 -2 13 -5z m1268
-14 c-3 -5 -15 -10 -26 -10 -10 0 -19 5 -19 10 0 6 12 10 26 10 14 0 23 -4 19
-10z m285 -31 c-12 -9 -11 -10 7 -6 12 3 32 -2 44 -11 16 -11 24 -12 27 -4 6
19 22 14 22 -7 0 -21 -55 -51 -92 -50 -22 0 -22 1 -3 9 19 8 19 9 1 9 -10 1
-24 -6 -31 -15 -16 -23 -117 -11 -108 13 4 11 2 14 -5 9 -7 -4 -12 -1 -12 8 0
8 5 18 10 21 6 3 10 1 10 -4 0 -18 24 -12 37 8 10 15 10 20 0 24 -7 2 15 4 48
5 46 2 56 -1 45 -9z m3360 -19 c64 -7 64 -7 -30 -8 -52 0 -116 3 -142 7 -28 5
-51 4 -57 -2 -11 -11 -34 0 -26 14 6 9 124 4 255 -11z m-800 -9 c0 -18 -140
-28 -190 -13 -17 5 9 9 75 13 55 3 103 6 108 7 4 1 7 -2 7 -7z m739 -25 c10
-12 8 -13 -8 -9 -12 3 -21 9 -21 14 0 14 16 11 29 -5z m-223 -21 c-3 -9 18
-21 65 -36 38 -12 69 -27 69 -31 0 -5 -8 -7 -17 -4 -10 2 -44 11 -77 18 -45
10 -60 18 -67 36 -5 13 -7 28 -4 32 8 14 37 -1 31 -15z m117 18 c-18 -2 -48
-2 -65 0 -18 2 -4 4 32 4 36 0 50 -2 33 -4z m297 -3 c0 -5 -4 -10 -10 -10 -5
0 -10 5 -10 10 0 6 5 10 10 10 6 0 10 -4 10 -10z m-1997 -47 c-7 -2 -19 -2
-25 0 -7 3 -2 5 12 5 14 0 19 -2 13 -5z m817 -79 c0 -21 -3 -24 -27 -18 -41
10 -47 20 -23 37 29 20 50 11 50 -19z m1041 -7 c-11 -11 -64 7 -81 28 -9 10 1
10 39 -3 33 -10 48 -19 42 -25z m-471 -37 c0 -5 12 -7 28 -4 34 6 104 -8 109
-23 4 -12 -159 -11 -190 2 -17 7 -16 9 5 20 29 16 48 18 48 5z m-211 -26 c2
-2 2 -6 -1 -9 -8 -8 -68 7 -68 17 0 9 58 2 69 -8z m440 -10 c2 -2 -10 -4 -27
-4 -18 0 -32 5 -32 10 0 9 47 4 59 -6z m-549 -9 c6 -8 9 -19 5 -25 -10 -16
-45 -12 -45 5 0 8 -5 15 -11 15 -7 0 -9 -9 -6 -21 5 -17 1 -20 -26 -17 -42 4
-45 24 -5 42 43 19 73 19 88 1z m660 -21 c13 -5 12 -8 -3 -19 -13 -10 -15 -14
-5 -18 7 -3 -22 -6 -64 -6 -42 -1 -80 4 -83 9 -3 6 -12 10 -18 10 -7 0 -6 -4
3 -10 12 -8 11 -10 -7 -10 -27 0 -31 26 -5 33 11 3 9 5 -8 6 -15 1 -20 4 -13
9 12 8 178 4 203 -4z m53 -6 c4 -10 7 -10 18 0 21 20 34 14 14 -8 -10 -11 -21
-20 -24 -20 -3 0 -12 9 -19 20 -7 11 -8 20 -3 20 5 0 11 -6 14 -12z m-1283
-82 c0 -2 -16 -6 -35 -8 -19 -2 -35 0 -35 4 0 4 16 8 35 8 19 0 35 -2 35 -4z
m73 -3 c-13 -2 -33 -2 -45 0 -13 2 -3 4 22 4 25 0 35 -2 23 -4z m70 0 c-7 -2
-19 -2 -25 0 -7 3 -2 5 12 5 14 0 19 -2 13 -5z m47 -33 c0 -5 -2 -10 -4 -10
-3 0 -8 5 -11 10 -3 6 -1 10 4 10 6 0 11 -4 11 -10z m-81 -26 c9 -8 -125 -2
-144 6 -12 5 12 6 60 3 44 -3 82 -7 84 -9z m-2389 -30 c0 -8 -5 -14 -10 -14
-6 0 -15 -12 -20 -26 -6 -14 -19 -28 -30 -31 -23 -6 -43 -48 -105 -213 -89
-240 -186 -445 -235 -500 l-32 -35 22 33 c48 73 138 278 220 502 21 58 50 130
64 160 14 29 26 62 26 71 0 19 78 81 92 73 4 -3 8 -12 8 -20z m2349 -5 c-15
-9 -32 -2 -24 11 3 5 13 6 21 3 12 -4 13 -8 3 -14z m-144 1 c3 -5 2 -10 -4
-10 -5 0 -13 5 -16 10 -3 6 -2 10 4 10 5 0 13 -4 16 -10z m78 3 c-7 -2 -19 -2
-25 0 -7 3 -2 5 12 5 14 0 19 -2 13 -5z m130 -35 c30 -7 14 -22 -23 -21 -24 1
-27 0 -10 -4 14 -2 30 -9 35 -15 7 -7 3 -9 -14 -5 -17 4 -21 3 -13 -5 8 -8 23
-8 54 0 36 9 40 9 26 -2 -10 -7 -18 -18 -18 -25 0 -6 -15 -11 -32 -12 -41 -1
-90 -6 -103 -10 -5 -1 -18 1 -27 5 -9 4 -25 3 -34 -2 -23 -13 -67 6 -60 25 3
8 -1 16 -9 19 -19 8 -19 24 0 24 8 0 15 -4 15 -10 0 -5 7 -10 15 -10 20 0 19
10 -2 27 -16 13 -15 14 12 8 28 -6 29 -6 13 12 -16 17 -13 18 70 12 48 -4 95
-9 105 -11z m465 -77 c-7 -9 -14 -18 -15 -20 -2 -2 -3 10 -3 29 0 28 2 31 15
20 12 -10 13 -16 3 -29z m-687 -34 c-1 -12 -15 -9 -19 4 -3 6 1 10 8 8 6 -3
11 -8 11 -12z m44 -25 c-3 -3 -11 0 -18 7 -9 10 -8 11 6 5 10 -3 15 -9 12 -12z
m79 -10 c2 -4 -4 -9 -15 -9 -10 -1 -19 2 -19 8 0 11 27 12 34 1z m91 -2 c-11
-5 -33 -8 -50 -8 -29 1 -29 1 5 8 49 10 69 10 45 0z m-215 -29 c0 -6 -4 -13
-10 -16 -5 -3 -10 1 -10 9 0 9 5 16 10 16 6 0 10 -4 10 -9z m182 -29 c46 0 72
-4 82 -15 8 -8 12 -17 9 -21 -4 -3 -1 -6 5 -6 7 0 12 7 12 15 0 8 5 15 10 15
6 0 10 -14 10 -31 0 -47 -57 -88 -84 -62 -11 11 -116 13 -116 3 0 -6 -15 -10
-33 -10 -37 0 -114 61 -102 80 5 9 10 9 18 1 6 -6 18 -11 27 -11 12 1 12 3 -4
15 -26 20 -10 38 29 32 17 -3 38 -1 46 3 7 5 16 5 19 1 3 -5 35 -9 72 -9z
m-3127 -297 c49 -200 86 -294 149 -385 45 -64 53 -80 21 -45 -41 46 -88 131
-124 225 -30 79 -112 391 -110 421 1 22 26 -63 64 -216z m-268 83 c-3 -8 -6
-5 -6 6 -1 11 2 17 5 13 3 -3 4 -12 1 -19z m10 -55 c-3 -10 -5 -4 -5 12 0 17
2 24 5 18 2 -7 2 -21 0 -30z m202 -353 c0 -10 -3 -8 -9 5 -12 27 -12 43 0 25
5 -8 9 -22 9 -30z m8 -42 c-3 -8 -6 -5 -6 6 -1 11 2 17 5 13 3 -3 4 -12 1 -19z
m273 -119 c0 -6 -4 -7 -10 -4 -5 3 -10 11 -10 16 0 6 5 7 10 4 6 -3 10 -11 10
-16z m42 -6 c18 -16 25 -53 11 -53 -17 1 -39 26 -40 48 -2 26 4 28 29 5z"/>
<path d="M2276 8873 c-1 -2 -16 -5 -32 -8 -145 -23 -232 -64 -329 -157 -41
-40 -75 -76 -75 -80 0 -4 -13 -29 -28 -55 -37 -62 -70 -151 -88 -233 -15 -68
-16 -370 -2 -347 5 7 8 0 8 -15 0 -16 5 -28 11 -28 6 0 10 -12 9 -27 -3 -48 0
-64 10 -58 6 4 8 10 5 15 -3 5 3 14 14 20 13 7 22 7 26 0 3 -6 -4 -10 -16 -10
-15 0 -20 -3 -13 -10 14 -14 56 0 50 17 -3 8 -2 12 2 10 4 -3 13 1 20 9 7 8 8
14 2 14 -14 0 -13 27 3 33 8 4 9 8 1 14 -6 4 -14 21 -18 38 -4 16 -12 33 -18
36 -12 8 7 233 23 277 5 13 7 34 3 45 -4 11 -1 23 7 29 11 7 11 11 2 15 -16 6
-17 35 -1 51 7 7 8 12 4 12 -5 0 -3 7 4 15 7 8 16 13 20 10 4 -3 13 9 20 25 7
17 20 30 29 30 10 0 30 15 46 34 18 22 41 37 63 41 19 3 49 20 66 36 29 27 37
29 109 29 87 0 146 -19 154 -50 3 -11 9 -20 14 -20 5 0 9 -5 9 -10 0 -6 20
-30 45 -53 26 -26 45 -53 45 -65 0 -12 4 -22 9 -22 14 0 20 -40 26 -171 3 -68
8 -145 10 -171 3 -25 2 -49 -3 -52 -5 -3 -103 -24 -218 -46 -262 -52 -286 -58
-278 -72 5 -7 0 -9 -13 -6 -16 4 -19 2 -16 -13 3 -11 0 -19 -7 -19 -20 0 14
-28 41 -33 22 -4 22 -4 -4 -6 -16 0 -26 -5 -22 -11 4 -6 11 -7 17 -4 7 5 8 2
3 -5 -4 -8 -17 -10 -32 -6 -17 4 -29 1 -37 -11 -11 -15 -14 -14 -30 10 -9 15
-14 31 -10 37 4 7 -3 6 -17 -2 -14 -7 -19 -14 -12 -16 17 -6 4 -33 -21 -43
-17 -7 -14 -9 19 -11 22 -1 43 -1 47 0 9 1 29 -59 23 -69 -3 -5 -2 -11 3 -14
4 -2 7 -17 6 -33 0 -15 5 -33 11 -39 19 -20 6 -72 -19 -77 -13 -3 -9 -5 12 -6
33 -1 34 -1 30 42 l-3 42 123 3 122 3 0 49 0 50 40 0 c22 0 40 -4 40 -10 0 -5
18 -10 40 -10 l40 0 0 -40 c0 -23 5 -40 11 -40 8 0 10 14 6 40 -3 22 -1 40 4
40 6 0 9 6 8 13 -4 36 2 67 15 67 10 0 14 11 13 35 -1 40 10 56 24 35 8 -11 9
-10 4 8 -4 15 -2 22 7 22 11 0 11 2 0 9 -11 6 -9 9 7 14 12 3 19 0 18 -6 -1
-6 8 -13 21 -15 19 -3 22 1 22 27 0 17 4 31 9 31 5 0 7 9 4 20 -4 15 3 23 31
37 22 10 36 24 36 35 0 10 6 18 14 18 18 0 26 57 13 93 -7 22 -12 26 -19 15
-7 -9 -8 -6 -4 12 3 14 5 84 5 155 -1 178 -1 197 -9 185 -4 -6 -12 6 -18 26
-6 21 -9 41 -6 46 3 4 0 8 -6 8 -8 0 -10 9 -6 26 6 21 4 25 -8 21 -12 -5 -16
0 -16 20 0 36 -84 115 -142 133 -41 13 -156 29 -162 23z m-519 -785 c-3 -8 -6
-5 -6 6 -1 11 2 17 5 13 3 -3 4 -12 1 -19z m-20 -40 c-3 -7 -5 -2 -5 12 0 14
2 19 5 13 2 -7 2 -19 0 -25z m678 -8 c-27 -12 -43 -12 -25 0 8 5 22 9 30 9 10
0 8 -3 -5 -9z m145 -20 c0 -13 -7 -20 -20 -20 -22 0 -28 25 -7 33 22 10 27 7
27 -13z m-480 -70 c0 -5 -12 -10 -27 -9 -25 0 -26 1 -8 9 27 12 35 12 35 0z
m-23 -26 c-3 -3 -12 -4 -19 -1 -8 3 -5 6 6 6 11 1 17 -2 13 -5z m393 -12 c0
-5 -9 -19 -20 -32 l-20 -23 0 31 c0 25 4 32 20 32 11 0 20 -4 20 -8z m-450
-87 c0 -8 -2 -15 -4 -15 -2 0 -6 7 -10 15 -3 8 -1 15 4 15 6 0 10 -7 10 -15z
m-3 -115 c-1 -16 -5 -30 -8 -30 -12 0 -17 38 -6 49 16 16 16 14 14 -19z"/>
<path d="M2222 8507 c-53 -12 -133 -81 -156 -134 -10 -21 -22 -48 -28 -61 -17
-34 -16 -215 1 -236 23 -27 135 -17 301 27 125 33 136 51 127 204 -5 86 -8 96
-38 136 -18 23 -34 43 -34 45 -3 4 -115 32 -123 31 -4 -1 -26 -6 -50 -12z"/>
<path d="M4435 8443 c-11 -3 -24 -11 -28 -19 -4 -8 -13 -14 -20 -14 -7 0 -6 4
3 10 20 13 8 12 -46 -1 -25 -7 -41 -15 -35 -18 7 -5 4 -15 -10 -30 -12 -12
-19 -23 -18 -24 2 -2 13 -9 23 -17 18 -14 19 -13 14 7 -4 14 -2 20 6 17 7 -3
17 6 23 19 9 19 22 26 57 31 30 5 46 12 46 22 0 17 17 19 22 3 2 -7 9 -5 17 5
12 14 10 16 -10 15 -13 -1 -33 -4 -44 -6z"/>
<path d="M4460 8395 c0 -8 5 -15 10 -15 6 0 10 7 10 15 0 8 -4 15 -10 15 -5 0
-10 -7 -10 -15z"/>
<path d="M4270 8390 c0 -5 -7 -10 -15 -10 -8 0 -15 -5 -15 -10 0 -7 6 -7 19 0
24 12 36 30 22 30 -6 0 -11 -4 -11 -10z"/>
<path d="M4228 8338 c-4 -38 -4 -127 1 -122 3 3 6 29 6 57 0 52 0 52 30 49 34
-4 25 11 -12 23 -16 4 -24 2 -25 -7z"/>
<path d="M4320 8284 c0 -8 5 -12 10 -9 6 4 8 11 5 16 -9 14 -15 11 -15 -7z"/>
<path d="M3375 8220 c-4 -6 -15 -8 -25 -5 -21 7 -58 -40 -37 -49 17 -7 -21
-36 -39 -29 -8 3 -14 2 -14 -2 0 -11 28 -35 42 -35 9 -1 7 -5 -4 -14 -10 -7
-18 -19 -18 -27 1 -10 4 -9 14 4 7 9 26 17 42 18 29 1 29 1 4 8 -25 7 -25 7
-2 13 35 10 27 28 -10 21 -18 -3 -30 -2 -25 2 4 5 36 8 72 7 38 -1 65 2 65 8
0 5 -8 10 -18 10 -21 0 -28 45 -11 66 9 11 7 14 -9 14 -12 0 -24 -5 -27 -10z
m-25 -34 c0 -3 -4 -8 -10 -11 -5 -3 -10 -1 -10 4 0 6 5 11 10 11 6 0 10 -2 10
-4z m40 -11 c0 -8 -5 -15 -11 -15 -5 0 -8 4 -5 9 4 5 0 12 -6 14 -8 3 -6 6 5
6 9 1 17 -6 17 -14z"/>
<path d="M3470 8205 c-16 -19 -1 -19 24 0 16 12 17 15 4 15 -8 0 -21 -7 -28
-15z"/>
<path d="M3501 8195 c-15 -15 -19 -25 -12 -29 6 -4 11 -2 11 5 0 6 8 18 17 25
10 7 16 14 13 17 -3 2 -16 -6 -29 -18z"/>
<path d="M4191 8204 c0 -11 3 -14 6 -6 3 7 2 16 -1 19 -3 4 -6 -2 -5 -13z"/>
<path d="M3434 8178 c3 -17 36 -23 36 -8 0 7 -6 10 -14 7 -8 -3 -17 -2 -20 4
-2 5 -3 4 -2 -3z"/>
<path d="M4210 8170 c0 -5 5 -10 10 -10 6 0 10 5 10 10 0 6 -4 10 -10 10 -5 0
-10 -4 -10 -10z"/>
<path d="M3594 8158 c-5 -7 -2 -9 9 -5 9 3 18 1 20 -6 2 -7 8 -9 12 -5 10 9
-3 28 -20 28 -8 0 -17 -5 -21 -12z"/>
<path d="M3210 8150 c0 -5 -6 -7 -14 -4 -17 7 -49 -25 -42 -42 3 -8 0 -14 -7
-14 -9 0 -9 -2 1 -9 10 -6 10 -10 -2 -20 -8 -7 -21 -9 -27 -5 -9 5 -10 2 -6
-9 3 -9 2 -19 -3 -22 -6 -4 -10 -11 -10 -16 0 -6 5 -7 10 -4 6 3 10 1 10 -4 0
-6 -6 -11 -13 -11 -7 0 -18 -9 -25 -20 -7 -12 -8 -20 -2 -20 5 0 10 -5 10 -11
0 -6 -7 -9 -15 -6 -8 4 -17 2 -20 -3 -4 -6 3 -10 14 -10 16 0 22 -8 27 -40 7
-44 20 -53 27 -17 2 12 3 4 1 -18 -4 -35 -2 -38 10 -22 7 9 21 17 31 17 15 0
17 6 12 37 -4 20 -12 40 -19 45 -10 6 -10 10 1 17 8 5 15 25 15 45 1 23 6 36
15 36 8 0 11 -6 7 -16 -3 -8 -2 -13 3 -10 5 3 11 -3 14 -14 7 -25 27 -26 27
-1 0 10 8 22 17 25 15 6 15 8 3 17 -11 6 -12 11 -4 17 32 20 10 82 -28 82 -10
0 -18 5 -18 10 0 6 9 10 20 10 11 0 20 5 20 10 0 6 -9 10 -20 10 -11 0 -20 -4
-20 -10z m-18 -45 c-2 -14 -6 -25 -7 -25 -1 0 -5 11 -7 25 -3 16 -1 25 7 25 8
0 10 -9 7 -25z"/>
<path d="M3520 8135 c0 -5 4 -17 10 -25 7 -12 12 -12 29 5 24 21 20 35 -5 15
-13 -12 -17 -11 -25 1 -5 8 -9 10 -9 4z"/>
<path d="M3570 8095 c-11 -13 -10 -14 4 -9 9 3 16 10 16 15 0 13 -6 11 -20 -6z"/>
<path d="M669 8068 c-7 -13 -19 -29 -27 -37 -17 -18 -10 -110 10 -123 7 -4 30
-7 51 -6 31 2 41 8 53 30 18 34 18 117 0 141 -20 25 -72 22 -87 -5z"/>
<path d="M4152 8000 c0 -14 2 -19 5 -12 2 6 2 18 0 25 -3 6 -5 1 -5 -13z"/>
<path d="M3971 7974 c0 -11 3 -14 6 -6 3 7 2 16 -1 19 -3 4 -6 -2 -5 -13z"/>
<path d="M3910 7955 c7 -9 15 -13 17 -11 7 7 -7 26 -19 26 -6 0 -6 -6 2 -15z"/>
<path d="M3980 7929 c0 -5 9 -9 20 -9 11 0 20 2 20 4 0 2 -9 6 -20 9 -11 3
-20 1 -20 -4z"/>
<path d="M3202 7900 c0 -14 2 -19 5 -12 2 6 2 18 0 25 -3 6 -5 1 -5 -13z"/>
<path d="M3871 7904 c0 -11 3 -14 6 -6 3 7 2 16 -1 19 -3 4 -6 -2 -5 -13z"/>
<path d="M3860 7871 c0 -6 7 -11 16 -11 11 0 13 -6 9 -19 -3 -11 -1 -22 5 -26
6 -3 10 3 10 15 0 12 5 18 10 15 6 -3 10 -2 10 3 0 5 -8 12 -17 16 -10 3 -24
9 -30 12 -7 3 -13 1 -13 -5z"/>
<path d="M1770 7850 c0 -5 5 -10 11 -10 5 0 7 5 4 10 -3 6 -8 10 -11 10 -2 0
-4 -4 -4 -10z"/>
<path d="M4340 7854 c0 -3 7 -12 15 -20 16 -17 18 -14 9 10 -6 15 -24 23 -24
10z"/>
<path d="M1840 7810 c0 -5 14 -10 31 -10 17 0 28 4 24 10 -3 6 -17 10 -31 10
-13 0 -24 -4 -24 -10z"/>
<path d="M3680 7788 c0 -8 9 -14 21 -15 12 -1 19 3 16 10 -5 17 -37 21 -37 5z"/>
<path d="M2698 7763 c7 -3 16 -2 19 1 4 3 -2 6 -13 5 -11 0 -14 -3 -6 -6z"/>
<path d="M3860 7729 c0 -5 5 -7 10 -4 6 3 10 8 10 11 0 2 -4 4 -10 4 -5 0 -10
-5 -10 -11z"/>
<path d="M4115 7730 c3 -5 8 -10 11 -10 2 0 4 5 4 10 0 6 -5 10 -11 10 -5 0
-7 -4 -4 -10z"/>
<path d="M4091 7694 c0 -11 3 -14 6 -6 3 7 2 16 -1 19 -3 4 -6 -2 -5 -13z"/>
<path d="M4320 7695 c0 -8 4 -15 10 -15 5 0 7 7 4 15 -4 8 -8 15 -10 15 -2 0
-4 -7 -4 -15z"/>
<path d="M3638 7683 c7 -3 16 -2 19 1 4 3 -2 6 -13 5 -11 0 -14 -3 -6 -6z"/>
<path d="M3878 7683 c7 -3 16 -2 19 1 4 3 -2 6 -13 5 -11 0 -14 -3 -6 -6z"/>
<path d="M2250 7672 c-5 -2 -10 -19 -10 -38 0 -33 1 -34 40 -34 l40 0 0 -40 0
-40 -40 0 c-22 0 -40 -4 -40 -10 0 -5 17 -10 38 -10 33 0 40 5 65 44 19 31 27
56 27 89 l0 47 -55 -3 c-30 -1 -59 -3 -65 -5z"/>
<path d="M3530 7640 c-13 -8 -13 -10 2 -10 9 0 20 5 23 10 8 13 -5 13 -25 0z"/>
<path d="M3460 7630 c-12 -8 -11 -10 7 -10 12 0 25 5 28 10 8 13 -15 13 -35 0z"/>
<path d="M3570 7620 c0 -13 -7 -20 -20 -20 -22 0 -28 -19 -7 -21 6 -1 22 -3
35 -4 19 -2 22 2 22 31 0 24 -5 34 -15 34 -8 0 -15 -9 -15 -20z"/>
<path d="M3610 7623 c0 -13 5 -23 10 -23 13 0 13 11 0 30 -8 12 -10 11 -10 -7z"/>
<path d="M3882 7610 c0 -19 2 -27 5 -17 2 9 2 25 0 35 -3 9 -5 1 -5 -18z"/>
<path d="M1905 7610 c3 -5 8 -10 11 -10 2 0 4 5 4 10 0 6 -5 10 -11 10 -5 0
-7 -4 -4 -10z"/>
<path d="M3483 7613 c-8 -3 -13 -22 -12 -51 1 -26 3 -38 6 -27 2 11 6 30 9 43
2 12 11 22 19 22 8 0 15 5 15 10 0 10 -16 12 -37 3z"/>
<path d="M4215 7600 c3 -5 10 -10 16 -10 5 0 9 5 9 10 0 6 -7 10 -16 10 -8 0
-12 -4 -9 -10z"/>
<path d="M4400 7564 c0 -15 26 -19 34 -5 3 5 -3 11 -14 14 -13 3 -20 0 -20 -9z"/>
<path d="M1978 7563 c7 -3 16 -2 19 1 4 3 -2 6 -13 5 -11 0 -14 -3 -6 -6z"/>
<path d="M1983 7525 c-7 -8 -9 -16 -4 -20 5 -3 12 1 14 7 3 7 6 4 6 -7 1 -17
3 -17 11 -5 6 10 10 11 10 3 0 -7 5 -13 10 -13 6 0 10 7 10 15 0 8 -9 15 -19
15 -11 0 -21 4 -23 9 -1 5 -9 3 -15 -4z"/>
<path d="M2057 7513 c-12 -11 -8 -23 8 -23 8 0 15 7 15 15 0 16 -12 20 -23 8z"/>
<path d="M4220 7485 c0 -8 2 -15 4 -15 2 0 6 7 10 15 3 8 1 15 -4 15 -6 0 -10
-7 -10 -15z"/>
<path d="M1980 7458 c0 -19 2 -20 10 -8 13 19 13 30 0 30 -5 0 -10 -10 -10
-22z"/>
<path d="M3080 7456 c0 -2 7 -6 15 -10 8 -3 15 -1 15 4 0 6 -7 10 -15 10 -8 0
-15 -2 -15 -4z"/>
<path d="M4448 7433 c6 -2 18 -2 25 0 6 3 1 5 -13 5 -14 0 -19 -2 -12 -5z"/>
<path d="M4270 7410 c0 -5 5 -10 11 -10 5 0 7 5 4 10 -3 6 -8 10 -11 10 -2 0
-4 -4 -4 -10z"/>
<path d="M4316 7403 c-6 -14 -5 -15 5 -6 7 7 10 15 7 18 -3 3 -9 -2 -12 -12z"/>
<path d="M3101 7384 c0 -11 3 -14 6 -6 3 7 2 16 -1 19 -3 4 -6 -2 -5 -13z"/>
<path d="M3075 7350 c-3 -5 -1 -10 4 -10 6 0 11 5 11 10 0 6 -2 10 -4 10 -3 0
-8 -4 -11 -10z"/>
<path d="M3106 7257 c3 -10 9 -15 12 -12 3 3 0 11 -7 18 -10 9 -11 8 -5 -6z"/>
<path d="M4499 7249 c-20 -4 -115 -20 -210 -33 -96 -14 -295 -44 -444 -65
-502 -74 -680 -99 -795 -116 -63 -9 -221 -32 -350 -51 -129 -19 -275 -40 -325
-46 -49 -6 -96 -12 -103 -14 -10 -3 -13 -25 -11 -89 3 -71 5 -84 18 -81 17 5
123 22 181 30 19 3 80 12 135 20 55 8 123 17 150 20 28 4 106 13 175 21 69 9
166 22 215 29 50 8 155 22 235 31 80 10 206 26 280 36 74 10 151 20 170 23
130 15 238 29 395 51 99 14 208 27 243 30 45 4 70 11 85 26 l22 21 -42 -7
c-64 -10 -83 -1 -83 43 0 20 4 42 8 49 10 16 62 35 78 29 7 -3 17 8 23 25 11
32 10 33 -50 18z m-113 -120 c27 -54 25 -71 -6 -51 -29 18 -56 15 -72 -10 -8
-12 -19 -18 -26 -14 -16 9 43 126 63 126 8 0 26 -23 41 -51z m-226 -25 l0 -47
41 7 c31 5 40 3 37 -6 -3 -7 -21 -14 -41 -16 -20 -2 -37 -8 -37 -13 0 -6 -7
-4 -15 5 -9 9 -15 34 -15 65 0 39 4 51 15 51 11 0 15 -12 15 -46z m-80 26 c0
-5 -9 -11 -20 -11 -39 -3 -43 -4 -47 -16 -3 -9 6 -13 26 -13 43 0 47 -17 7
-24 -26 -5 -36 -12 -38 -29 -3 -23 -34 -32 -32 -9 1 6 2 32 3 56 1 38 5 45 24
49 43 8 77 7 77 -3z m-310 -39 c0 -11 -25 -21 -51 -21 -10 0 -19 -7 -19 -15 0
-11 8 -13 30 -8 19 3 30 1 30 -6 0 -6 -6 -11 -13 -11 -7 0 -22 -7 -33 -15 -18
-15 -17 -15 18 -13 42 3 52 -13 16 -24 -56 -15 -65 -11 -71 37 -8 59 -2 73 36
78 18 2 38 5 45 5 6 1 12 -2 12 -7z m-144 -56 c3 -25 4 -52 0 -60 -9 -24 -26
-17 -26 10 0 27 -1 28 -24 19 -9 -3 -16 -15 -16 -25 0 -10 -2 -19 -4 -19 -2 0
-10 -2 -18 -5 -10 -4 -12 8 -10 55 3 41 8 60 15 57 7 -2 11 -12 11 -21 -1 -11
6 -16 22 -16 19 0 24 5 24 25 0 42 18 28 26 -20z m-142 16 c3 -5 -5 -12 -19
-15 -20 -5 -24 -13 -27 -54 -4 -61 -22 -61 -26 1 -3 42 -6 47 -22 42 -10 -3
-21 -1 -24 4 -4 6 10 13 31 16 21 4 43 8 48 10 19 6 34 5 39 -4z m-301 -46 c1
-6 -13 -11 -30 -13 -21 -2 -33 -9 -33 -18 0 -12 7 -14 30 -9 17 4 30 2 30 -3
0 -5 -13 -12 -30 -15 -44 -9 -36 -27 12 -27 52 0 40 -16 -18 -26 l-41 -6 -6
48 c-7 62 -2 72 36 77 41 5 48 4 50 -8z m-135 -44 c2 -13 -2 -28 -10 -33 -10
-7 -10 -10 5 -19 9 -5 17 -14 17 -19 0 -15 -27 -12 -44 5 -20 21 -36 19 -36
-4 0 -11 -4 -23 -10 -26 -12 -7 -14 107 -3 119 4 4 23 6 43 4 28 -2 36 -8 38
-27z m-138 -42 c0 -44 -3 -51 -26 -60 -34 -12 -64 -3 -64 20 0 10 -3 33 -6 50
-5 24 -3 31 10 31 12 0 16 -10 16 -41 0 -36 2 -40 23 -37 19 3 22 10 25 51 4
62 22 51 22 -14z m-130 26 c0 -8 -9 -15 -20 -15 -17 0 -20 -7 -20 -50 0 -58
-19 -69 -21 -12 -1 20 -1 43 0 50 2 10 -4 12 -18 7 -12 -3 -26 -3 -33 2 -8 5
5 12 37 19 68 16 75 16 75 -1z m-137 -27 c8 -24 -5 -46 -33 -58 -15 -6 -30
-20 -33 -31 -3 -10 -10 -19 -16 -19 -12 0 -16 102 -4 113 12 12 81 7 86 -5z
m-144 -54 c22 -46 17 -80 -8 -50 -12 14 -51 11 -51 -5 0 -5 -7 -9 -15 -9 -20
0 -19 9 5 64 10 25 25 46 33 46 7 0 23 -21 36 -46z m-135 30 c29 -11 18 -32
-16 -30 -29 1 -33 -2 -36 -27 -4 -34 23 -48 42 -22 18 24 40 11 26 -16 -7 -13
-21 -19 -43 -19 -40 0 -57 15 -57 50 0 48 43 80 84 64z"/>
<path d="M4326 7125 c-4 -10 1 -15 14 -15 13 0 18 5 14 15 -4 8 -10 15 -14 15
-4 0 -10 -7 -14 -15z"/>
<path d="M2987 6964 c-14 -14 -7 -25 13 -22 12 2 21 8 21 13 0 12 -24 18 -34
9z"/>
<path d="M2577 6903 c-14 -13 -6 -23 18 -23 16 0 25 6 25 15 0 15 -31 21 -43
8z"/>
<path d="M2456 6861 c-4 -7 -5 -15 -2 -18 9 -9 19 4 14 18 -4 11 -6 11 -12 0z"/>
<path d="M4477 7173 c-10 -9 -9 -61 1 -67 12 -7 52 5 52 15 0 5 -7 9 -15 9
-22 0 -18 18 5 25 11 4 18 11 15 16 -7 10 -48 12 -58 2z"/>
<path d="M4515 6983 c35 -9 39 -22 9 -28 -47 -11 -54 -14 -54 -26 0 -7 9 -9
25 -5 31 8 54 -2 34 -15 -8 -5 -24 -9 -36 -9 -15 0 -23 -6 -23 -16 0 -13 7
-15 35 -11 19 3 37 2 40 -3 6 -9 -20 -18 -60 -21 -46 -3 -47 -1 -43 62 3 56 2
60 -17 55 -11 -3 -29 -6 -40 -6 -18 -1 -19 -1 -2 -11 32 -19 19 -31 -24 -24
-33 6 -40 4 -37 -6 3 -8 20 -16 39 -19 39 -6 52 -36 23 -57 -25 -18 -94 -17
-94 2 0 10 10 14 36 12 22 -1 39 3 41 11 3 8 -5 12 -24 12 -41 0 -57 14 -51
45 4 20 2 25 -9 21 -8 -3 -20 -6 -26 -6 -8 0 -11 -19 -9 -60 4 -58 3 -60 -21
-60 -16 0 -28 9 -38 28 l-13 27 -4 -32 c-2 -18 -7 -33 -13 -33 -8 0 -13 40
-12 103 0 11 -8 17 -24 17 -16 0 -23 -6 -23 -19 0 -15 -8 -21 -32 -23 -17 -2
-34 -9 -36 -17 -3 -10 3 -12 27 -9 21 3 31 0 31 -9 0 -8 -12 -13 -30 -13 -21
0 -30 -5 -30 -16 0 -13 7 -15 35 -11 19 3 35 2 35 -3 0 -12 -27 -20 -67 -20
l-35 0 4 64 c3 57 2 63 -13 57 -10 -3 -18 -10 -18 -15 1 -14 -23 -26 -52 -26
-15 0 -29 -7 -33 -15 -4 -12 3 -15 29 -15 41 0 47 -17 8 -22 -20 -2 -29 -9
-31 -25 -2 -13 -10 -23 -18 -23 -11 0 -14 15 -14 60 0 41 -4 60 -12 60 -18 0
-40 -15 -39 -26 1 -5 -11 -11 -26 -12 -45 -6 -48 -26 -5 -33 l37 -6 -32 -8
c-46 -11 -44 -36 2 -28 21 3 35 1 35 -5 0 -11 -33 -22 -72 -22 -28 0 -28 1
-28 61 0 52 -2 60 -16 55 -9 -3 -22 -6 -30 -6 -12 0 -12 -4 2 -25 19 -30 11
-81 -16 -95 -10 -6 -32 -10 -49 -10 l-31 0 0 61 0 61 -27 -6 c-16 -3 -63 -9
-106 -12 -72 -6 -76 -8 -62 -24 21 -23 19 -33 -6 -27 -24 6 -49 -1 -49 -14 0
-5 18 -6 40 -3 40 6 40 6 40 -25 0 -25 -6 -34 -27 -42 -15 -5 -38 -9 -52 -7
-23 3 -26 8 -28 48 -1 30 4 51 15 64 16 18 16 18 -3 13 -11 -3 -51 -10 -90
-17 -117 -19 -122 -20 -104 -30 11 -6 16 -25 18 -58 1 -50 1 -50 -35 -56 -46
-9 -64 6 -64 54 0 30 6 43 27 58 l26 19 -44 -10 -44 -10 0 -61 c0 -72 -21 -87
-47 -34 l-17 33 0 -32 c-1 -49 -21 -40 -22 10 -1 23 -1 49 0 58 1 11 -6 17
-24 17 -20 0 -24 -4 -20 -19 4 -13 1 -19 -9 -19 -12 0 -16 -10 -16 -35 0 -24
5 -35 15 -35 20 0 19 -16 -1 -24 -25 -10 -74 -7 -74 4 0 6 7 10 15 10 10 0 15
10 15 34 0 26 -5 35 -22 41 -22 6 -22 7 7 21 26 13 26 14 5 9 -14 -3 -48 -8
-76 -12 -47 -5 -50 -7 -46 -30 l5 -24 23 22 c29 27 52 21 25 -8 -20 -21 -20
-21 5 -44 16 -15 21 -26 14 -33 -6 -6 -17 -2 -33 12 -30 28 -37 28 -37 -3 0
-14 -4 -25 -9 -25 -11 0 -18 37 -17 82 1 32 -1 33 -39 35 -38 3 -39 2 -16 -10
40 -20 38 -37 -6 -34 -35 2 -38 0 -41 -26 -4 -34 21 -46 47 -23 20 18 31 20
31 7 0 -33 -72 -55 -98 -29 -20 20 -15 76 8 90 11 7 20 16 20 21 0 4 -5 5 -11
1 -17 -10 -125 -24 -211 -27 l-78 -2 0 -36 c0 -20 3 -57 6 -82 6 -41 8 -45 28
-38 11 5 53 11 91 15 39 4 142 16 230 27 88 12 176 23 195 25 38 5 409 53 450
59 14 1 54 6 90 10 36 3 72 8 80 10 8 2 92 13 185 25 94 11 204 25 245 30 109
15 484 58 560 65 36 3 82 8 103 11 l37 6 0 89 0 89 -37 -1 c-22 -1 -29 -3 -18
-6z m-2020 -339 c21 -36 24 -48 15 -57 -10 -9 -14 -9 -17 1 -7 17 -50 15 -57
-3 -10 -27 -29 -17 -21 12 11 45 33 93 44 93 5 0 21 -21 36 -46z m-115 -24 c0
-33 -4 -60 -10 -60 -5 0 -10 12 -10 26 0 33 -33 30 -38 -4 -2 -12 -7 -22 -11
-22 -9 0 -22 91 -14 103 7 12 23 -3 23 -23 0 -13 5 -17 20 -13 13 3 20 14 20
29 0 13 5 24 10 24 6 0 10 -27 10 -60z"/>
<path d="M2455 6640 c-8 -13 -1 -24 14 -19 6 3 7 10 2 18 -6 10 -10 10 -16 1z"/>
<path d="M4180 6933 c0 -7 30 -63 34 -63 2 0 6 15 8 34 3 29 1 34 -19 34 -13
0 -23 -2 -23 -5z"/>
<path d="M3603 6853 c9 -2 23 -2 30 0 6 3 -1 5 -18 5 -16 0 -22 -2 -12 -5z"/>
<path d="M3613 6819 c-11 -11 -6 -56 7 -64 11 -7 40 23 40 40 0 20 -34 37 -47
24z"/>
<path d="M2940 6760 c0 -5 4 -10 9 -10 5 0 11 -10 14 -22 7 -26 12 -23 21 15
6 24 4 27 -19 27 -14 0 -25 -4 -25 -10z"/>
<path d="M3070 6735 c-6 -8 -9 -23 -5 -35 7 -21 39 -28 50 -10 3 6 -1 10 -9
10 -21 0 -21 16 0 24 17 7 10 26 -10 26 -8 0 -19 -7 -26 -15z"/>
<path d="M3325 6730 c-8 -13 20 -24 40 -16 8 3 15 10 15 16 0 13 -47 13 -55 0z"/>
<path d="M430 6510 c8 -5 24 -10 35 -10 17 0 17 2 5 10 -8 5 -24 10 -35 10
-17 0 -17 -2 -5 -10z"/>
<path d="M430 6440 c0 -5 5 -10 10 -10 6 0 10 5 10 10 0 6 -4 10 -10 10 -5 0
-10 -4 -10 -10z"/>
<path d="M2380 4270 c0 -5 5 -10 11 -10 5 0 7 5 4 10 -3 6 -8 10 -11 10 -2 0
-4 -4 -4 -10z"/>
<path d="M2622 4300 c9 -13 14 -16 20 -7 4 6 2 15 -5 19 -21 14 -28 9 -15 -12z"/>
<path d="M2688 4293 c7 -3 16 -2 19 1 4 3 -2 6 -13 5 -11 0 -14 -3 -6 -6z"/>
<path d="M1560 3319 c0 -24 23 -21 28 4 2 10 -3 17 -12 17 -10 0 -16 -9 -16
-21z"/>
<path d="M1705 3330 c3 -5 8 -10 11 -10 2 0 4 5 4 10 0 6 -5 10 -11 10 -5 0
-7 -4 -4 -10z"/>
<path d="M1430 3219 c0 -6 9 -13 20 -16 11 -3 20 -9 20 -14 0 -5 5 -9 10 -9 6
0 21 -12 34 -27 22 -25 22 -29 7 -40 -14 -11 -14 -14 -1 -22 19 -13 21 -10 22
29 1 22 -7 39 -24 55 -34 31 -88 59 -88 44z"/>
<path d="M1928 3039 c-10 -5 -18 -15 -18 -22 0 -9 3 -8 9 1 10 17 27 -2 34
-38 2 -15 5 -5 6 23 1 49 -2 53 -31 36z"/>
<path d="M1805 3030 c-4 -6 -11 -8 -16 -5 -5 4 -9 1 -9 -4 0 -6 9 -11 20 -11
11 0 20 7 20 15 0 17 -6 19 -15 5z"/>
<path d="M1792 2978 c-7 -7 -12 -15 -12 -20 0 -12 28 2 34 18 7 17 -6 18 -22
2z"/>
<path d="M1880 2955 c0 -8 2 -15 4 -15 2 0 6 7 10 15 3 8 1 15 -4 15 -6 0 -10
-7 -10 -15z"/>
<path d="M3672 2539 c-40 -26 -36 -33 12 -24 26 5 36 12 36 26 0 24 -7 24 -48
-2z"/>
<path d="M3650 2500 c-35 -7 -35 -7 -5 -9 17 0 37 4 45 9 17 11 11 11 -40 0z"/>
<path d="M3528 2473 c7 -3 16 -2 19 1 4 3 -2 6 -13 5 -11 0 -14 -3 -6 -6z"/>
<path d="M3466 2461 c-3 -4 6 -6 19 -3 14 2 25 6 25 8 0 8 -39 4 -44 -5z"/>
<path d="M3937 2449 c-5 -17 -9 -19 -26 -10 -25 14 -31 14 -31 1 0 -5 9 -10
20 -10 11 0 20 -7 20 -15 0 -12 4 -11 20 5 22 22 25 36 11 44 -5 3 -11 -4 -14
-15z"/>
<path d="M3970 2451 c0 -11 26 -22 34 -14 3 3 3 10 0 14 -7 12 -34 11 -34 0z"/>
<path d="M3949 2394 c-9 -11 -22 -14 -42 -10 -26 5 -28 4 -21 -17 3 -12 7 -23
8 -24 0 0 24 -4 51 -8 46 -6 49 -5 31 9 -19 16 -19 16 3 16 13 0 19 4 16 10
-4 6 -2 16 4 23 7 10 4 13 -13 15 -13 1 -30 -5 -37 -14z m-14 -34 c17 -8 16
-8 -7 -7 -16 1 -28 5 -28 9 0 10 9 9 35 -2z"/>
<path d="M3245 2360 c3 -5 13 -10 21 -10 8 0 12 5 9 10 -3 6 -13 10 -21 10 -8
0 -12 -4 -9 -10z"/>
<path d="M3420 2289 c0 -5 5 -7 10 -4 6 3 10 8 10 11 0 2 -4 4 -10 4 -5 0 -10
-5 -10 -11z"/>
<path d="M3770 2295 c0 -3 9 -14 21 -26 17 -17 38 -22 99 -26 93 -7 110 -2
103 27 -4 15 -13 20 -37 19 -17 0 -66 2 -108 5 -43 4 -78 4 -78 1z"/>
<path d="M2168 2873 c7 -3 16 -2 19 1 4 3 -2 6 -13 5 -11 0 -14 -3 -6 -6z"/>
<path d="M1737 2600 c3 -11 7 -20 9 -20 2 0 4 9 4 20 0 11 -4 20 -9 20 -5 0
-7 -9 -4 -20z"/>
<path d="M1700 2590 c0 -5 7 -10 16 -10 8 0 12 5 9 10 -3 6 -10 10 -16 10 -5
0 -9 -4 -9 -10z"/>
<path d="M4240 2611 c0 -18 32 -41 56 -41 19 0 24 5 24 25 0 23 -4 25 -40 25
-22 0 -40 -4 -40 -9z"/>
<path d="M1830 2550 c0 -5 7 -10 16 -10 8 0 12 5 9 10 -3 6 -10 10 -16 10 -5
0 -9 -4 -9 -10z"/>
<path d="M1860 2531 c-24 -4 -31 -9 -22 -15 16 -10 62 1 62 14 0 6 -1 9 -2 9
-2 -1 -19 -4 -38 -8z"/>
<path d="M1940 2510 c0 -5 7 -7 15 -4 8 4 15 8 15 10 0 2 -7 4 -15 4 -8 0 -15
-4 -15 -10z"/>
<path d="M1781 2496 c2 -2 22 -6 44 -9 27 -4 35 -3 25 3 -14 9 -79 15 -69 6z"/>
<path d="M4838 2313 c7 -3 16 -2 19 1 4 3 -2 6 -13 5 -11 0 -14 -3 -6 -6z"/>
<path d="M4778 2303 c7 -3 16 -2 19 1 4 3 -2 6 -13 5 -11 0 -14 -3 -6 -6z"/>
<path d="M4968 2253 c6 -2 18 -2 25 0 6 3 1 5 -13 5 -14 0 -19 -2 -12 -5z"/>
<path d="M5032 2249 c2 -6 8 -10 13 -10 5 0 11 4 13 10 2 6 -4 11 -13 11 -9 0
-15 -5 -13 -11z"/>
<path d="M5078 2253 c6 -2 18 -2 25 0 6 3 1 5 -13 5 -14 0 -19 -2 -12 -5z"/>
<path d="M3971 1811 c-33 -9 -36 -24 -6 -38 14 -6 25 -7 25 -2 0 5 9 9 20 9
11 0 20 -5 20 -11 0 -5 5 -7 11 -4 7 5 5 13 -5 24 -9 10 -13 21 -9 24 8 9 -24
7 -56 -2z"/>
<path d="M3900 1784 c0 -14 3 -14 15 -4 8 7 15 14 15 16 0 2 -7 4 -15 4 -8 0
-15 -7 -15 -16z"/>
<path d="M1115 4282 c-11 -11 -4 -22 13 -22 14 0 14 -2 3 -9 -8 -5 -21 -7 -29
-4 -10 4 -13 0 -10 -13 2 -11 13 -20 26 -22 12 -2 22 -8 22 -13 0 -15 19 -10
41 12 29 29 13 65 -30 71 -17 3 -33 2 -36 0z"/>
<path d="M1185 4100 c-4 -6 3 -10 14 -10 25 0 27 6 6 13 -8 4 -17 2 -20 -3z"/>
<path d="M1236 4101 c-4 -5 -1 -13 4 -16 14 -8 65 3 56 13 -11 11 -54 13 -60
3z"/>
<path d="M1155 4030 c3 -5 11 -7 19 -4 7 3 38 1 69 -4 43 -7 62 -6 75 4 14 11
3 13 -76 14 -57 0 -91 -4 -87 -10z"/>
<path d="M1180 3915 c0 -5 5 -17 10 -25 5 -8 10 -10 10 -5 0 6 -5 17 -10 25
-5 8 -10 11 -10 5z"/>
<path d="M1438 3813 c-20 -5 -24 -23 -5 -23 6 1 26 7 42 15 29 13 29 13 5 13
-14 0 -33 -2 -42 -5z"/>
<path d="M1092 3770 c0 -14 2 -19 5 -12 2 6 2 18 0 25 -3 6 -5 1 -5 -13z"/>
<path d="M1240 3780 c0 -5 5 -10 10 -10 6 0 10 5 10 10 0 6 -4 10 -10 10 -5 0
-10 -4 -10 -10z"/>
<path d="M1687 3583 c-14 -50 -15 -69 -7 -83 13 -21 26 -3 33 42 4 24 1 40 -8
48 -10 8 -14 7 -18 -7z"/>
<path d="M1756 3522 c-3 -9 -9 -23 -12 -29 -3 -7 -2 -13 4 -13 13 0 33 48 23
55 -5 2 -11 -3 -15 -13z"/>
<path d="M295 3521 c-8 -15 3 -31 21 -31 9 0 14 7 12 17 -4 20 -24 28 -33 14z"/>
<path d="M440 3380 c0 -6 -11 -15 -25 -20 -19 -7 -25 -16 -24 -37 l1 -28 10
28 c5 15 16 27 24 27 8 0 14 5 14 10 0 6 9 10 19 10 11 0 23 -4 26 -10 3 -5
11 -10 17 -10 6 0 -1 9 -15 20 -27 22 -47 26 -47 10z"/>
<path d="M226 3324 c-9 -22 -8 -24 10 -24 10 0 14 -6 10 -15 -5 -15 5 -21 17
-9 6 6 -19 64 -27 64 -2 0 -7 -7 -10 -16z"/>
<path d="M520 3300 c0 -5 5 -10 10 -10 6 0 10 5 10 10 0 6 -4 10 -10 10 -5 0
-10 -4 -10 -10z"/>
<path d="M517 3261 c-3 -11 -19 -22 -43 -28 -30 -8 -35 -12 -21 -18 27 -12 63
2 75 30 14 31 15 35 3 35 -5 0 -11 -8 -14 -19z"/>
<path d="M237 3217 c-3 -8 -1 -20 4 -28 5 -8 9 -24 9 -36 0 -23 10 -29 23 -16
4 3 2 12 -4 19 -7 9 -7 19 1 34 6 11 8 25 5 30 -9 14 -32 12 -38 -3z"/>
<path d="M440 3181 c0 -5 7 -14 16 -22 8 -7 13 -21 11 -31 -7 -27 2 -22 13 8
8 19 6 29 -4 40 -16 16 -36 19 -36 5z"/>
<path d="M290 3150 c0 -5 4 -10 9 -10 6 0 13 5 16 10 3 6 -1 10 -9 10 -9 0
-16 -4 -16 -10z"/>
<path d="M505 3139 c-11 -17 1 -21 15 -4 8 9 8 15 2 15 -6 0 -14 -5 -17 -11z"/>
<path d="M395 3131 c-3 -5 -1 -12 5 -16 5 -3 10 1 10 9 0 18 -6 21 -15 7z"/>
<path d="M362 3095 c0 -16 2 -22 5 -12 2 9 2 23 0 30 -3 6 -5 -1 -5 -18z"/>
<path d="M503 3070 c10 -26 13 -28 26 -15 13 13 13 17 -4 30 -30 22 -34 18
-22 -15z"/>
<path d="M585 3068 c4 -18 13 -51 21 -73 8 -22 14 -48 14 -57 0 -11 8 -18 19
-18 27 0 51 10 51 22 0 5 -3 7 -7 5 -5 -3 -9 15 -10 38 -3 56 -39 115 -71 115
-21 0 -23 -3 -17 -32z"/>
<path d="M422 3073 c2 -10 10 -18 18 -18 8 0 16 8 18 18 2 12 -3 17 -18 17
-15 0 -20 -5 -18 -17z"/>
<path d="M440 3032 c-27 -10 -38 -18 -28 -20 9 -2 22 -18 28 -37 15 -46 36
-51 49 -13 13 36 14 75 4 81 -5 2 -28 -3 -53 -11z m34 -36 c-7 -29 -19 -34
-28 -10 -10 25 -7 32 12 36 23 6 24 4 16 -26z"/>
<path d="M545 3040 c-3 -5 1 -10 9 -10 9 0 16 5 16 10 0 6 -4 10 -9 10 -6 0
-13 -4 -16 -10z"/>
<path d="M278 2972 c-3 -12 2 -24 13 -31 16 -10 19 -8 20 11 1 22 1 22 9 -2 5
-15 8 -18 9 -8 3 44 -41 69 -51 30z"/>
<path d="M390 2980 c-11 -7 -12 -12 -3 -21 6 -6 9 -18 6 -25 -3 -8 0 -14 7
-14 9 0 11 10 6 33 -5 28 -4 30 8 15 18 -24 29 -23 16 2 -12 22 -18 24 -40 10z"/>
<path d="M550 2918 c0 -9 36 -5 46 5 4 4 -5 6 -19 5 -15 -1 -27 -6 -27 -10z"/>
<path d="M90 1912 l-95 -17 190 -5 c116 -4 201 -11 219 -18 55 -24 39 -2 -18
24 -73 33 -170 39 -296 16z"/>
</g>
</svg>
